<?xml version="1.0" encoding="UTF-8" standalone="no"?><svg xmlns="http://www.w3.org/2000/svg" xmlns:xlink="http://www.w3.org/1999/xlink" contentStyleType="text/css" height="438px" preserveAspectRatio="none" style="width:350px;height:438px;background:#FFFFFF;" version="1.1" viewBox="0 0 350 438" width="350px" zoomAndPan="magnify"><defs/><g><!--cluster Class Diagram  of SNRU Navigation System--><g id="cluster_Class Diagram  of SNRU Navigation System"><path d="M8.5,6 L306.5,6 A3.75,3.75 0 0 1 309,8.5 L316,27.6406 L340.5,27.6406 A2.5,2.5 0 0 1 343,30.1406 L343,428.5 A2.5,2.5 0 0 1 340.5,431 L8.5,431 A2.5,2.5 0 0 1 6,428.5 L6,8.5 A2.5,2.5 0 0 1 8.5,6 " fill="none" style="stroke:#000000;stroke-width:1.5;"/><line style="stroke:#000000;stroke-width:1.5;" x1="6" x2="316" y1="27.6406" y2="27.6406"/><text fill="#000000" font-family="sans-serif" font-size="14" font-weight="bold" lengthAdjust="spacing" textLength="297" x="10" y="20.6738">Class Diagram  of SNRU Navigation System</text></g><!--class UserAccount--><g id="elem_UserAccount"><rect codeLine="4" fill="#F1F1F1" height="220.0469" id="UserAccount" rx="2.5" ry="2.5" style="stroke:#181818;stroke-width:0.5;" width="136" x="191" y="40"/><ellipse cx="216.8" cy="56" fill="#ADD1B2" rx="11" ry="11" style="stroke:#181818;stroke-width:1.0;"/><path d="M218.8,52.5 Q219.0031,52 219.2375,51.75 Q219.4719,51.5 219.7375,51.5 Q220.2063,51.5 220.5031,51.7813 Q220.8,52.0625 220.8,52.7188 L220.8,54.2813 Q220.8,54.9375 220.5188,55.2188 Q220.2375,55.5 219.8,55.5 Q219.4094,55.5 219.1594,55.3281 Q218.9094,55.1563 218.8,54.7031 Q218.7531,54.3906 218.5813,54.2188 Q218.2688,53.8906 217.7063,53.7031 Q217.1438,53.5 216.5813,53.5 Q215.8781,53.5 215.2844,53.7813 Q214.7063,54.0625 214.2531,54.6875 Q213.8,55.3125 213.8,56.1719 L213.8,57.0938 Q213.8,58.125 214.6438,58.8125 Q215.4875,59.5 216.9875,59.5 Q217.8781,59.5 218.5031,59.2969 Q218.8625,59.1875 219.2688,58.8281 Q219.5344,58.625 219.675,58.5625 Q219.8156,58.5 219.9875,58.5 Q220.3156,58.5 220.55,58.7656 Q220.8,59.0156 220.8,59.375 Q220.8,59.7188 220.4563,60.125 Q219.9563,60.7188 219.1594,61.0469 Q218.1125,61.5 216.8313,61.5 Q215.3313,61.5 214.1281,60.9063 Q213.1594,60.4375 212.4719,59.4219 Q211.8,58.4063 211.8,57.2031 L211.8,56.1094 Q211.8,54.8594 212.3938,53.7656 Q213.0031,52.6719 214.05,52.0938 Q215.1125,51.5 216.3,51.5 Q217.0188,51.5 217.6438,51.75 Q218.2688,52 218.8,52.5 Z " fill="#000000"/><text fill="#000000" font-family="sans-serif" font-size="14" lengthAdjust="spacing" textLength="80" x="233.2" y="60.8535">UserAccount</text><line style="stroke:#181818;stroke-width:0.5;" x1="192" x2="326" y1="72" y2="72"/><rect fill="none" height="6" style="stroke:#C82930;stroke-width:1.0;" width="6" x="199" y="82.3203"/><text fill="#000000" font-family="sans-serif" font-size="14" lengthAdjust="spacing" textLength="58" x="211" y="88.6738">id : string</text><rect fill="none" height="6" style="stroke:#C82930;stroke-width:1.0;" width="6" x="199" y="97.9609"/><text fill="#000000" font-family="sans-serif" font-size="14" lengthAdjust="spacing" textLength="82" x="211" y="104.3145">name : string</text><rect fill="none" height="6" style="stroke:#C82930;stroke-width:1.0;" width="6" x="199" y="113.6016"/><text fill="#000000" font-family="sans-serif" font-size="14" lengthAdjust="spacing" textLength="102" x="211" y="119.9551">surname : string</text><rect fill="none" height="6" style="stroke:#C82930;stroke-width:1.0;" width="6" x="199" y="129.2422"/><text fill="#000000" font-family="sans-serif" font-size="14" lengthAdjust="spacing" textLength="110" x="211" y="135.5957">username : string</text><rect fill="none" height="6" style="stroke:#C82930;stroke-width:1.0;" width="6" x="199" y="144.8828"/><text fill="#000000" font-family="sans-serif" font-size="14" lengthAdjust="spacing" textLength="107" x="211" y="151.2363">password : string</text><rect fill="none" height="6" style="stroke:#C82930;stroke-width:1.0;" width="6" x="199" y="160.5234"/><text fill="#000000" font-family="sans-serif" font-size="14" lengthAdjust="spacing" textLength="101" x="211" y="166.877">role : RoleEnum</text><line style="stroke:#181818;stroke-width:0.5;" x1="192" x2="326" y1="173.8438" y2="173.8438"/><ellipse cx="202" cy="187.1641" fill="#84BE84" rx="3" ry="3" style="stroke:#038048;stroke-width:1.0;"/><text fill="#000000" font-family="sans-serif" font-size="14" lengthAdjust="spacing" textLength="107" x="211" y="190.5176">getOne() : object</text><ellipse cx="202" cy="202.8047" fill="#84BE84" rx="3" ry="3" style="stroke:#038048;stroke-width:1.0;"/><text fill="#000000" font-family="sans-serif" font-size="14" lengthAdjust="spacing" textLength="95" x="211" y="206.1582">getAll() : object</text><ellipse cx="202" cy="218.4453" fill="#84BE84" rx="3" ry="3" style="stroke:#038048;stroke-width:1.0;"/><text fill="#000000" font-family="sans-serif" font-size="14" lengthAdjust="spacing" textLength="100" x="211" y="221.7988">create() : object</text><ellipse cx="202" cy="234.0859" fill="#84BE84" rx="3" ry="3" style="stroke:#038048;stroke-width:1.0;"/><text fill="#000000" font-family="sans-serif" font-size="14" lengthAdjust="spacing" textLength="92" x="211" y="237.4395">update() : void</text><ellipse cx="202" cy="249.7266" fill="#84BE84" rx="3" ry="3" style="stroke:#038048;stroke-width:1.0;"/><text fill="#000000" font-family="sans-serif" font-size="14" lengthAdjust="spacing" textLength="87" x="211" y="253.0801">delete() : void</text></g><!--class RoleEnum--><g id="elem_RoleEnum"><rect codeLine="19" fill="#F1F1F1" height="79.2813" id="RoleEnum" rx="2.5" ry="2.5" style="stroke:#181818;stroke-width:0.5;" width="97" x="210.5" y="336"/><ellipse cx="225.5" cy="352" fill="#EB937F" rx="11" ry="11" style="stroke:#181818;stroke-width:1.0;"/><path d="M224,353 L224,355 L228,355 L228,354 L228,353.5156 L228.625,353 L229,353 L229.375,353 L230,353.5156 L230,354 L230,357 L222,357 L221.5156,357 L221,356.375 L221,356 L221,355.625 L221.5156,355 L222,355 L222,355 L222,349 L222,349 L221.5156,349 L221,348.375 L221,348 L221,347.625 L221.5156,347 L222,347 L230,347 L230,350 L230,350.4844 L229.375,351 L229,351 L228.625,351 L228,350.4844 L228,350 L228,349 L224,349 L224,351 L225,351 L225,350.5156 L225,350.5156 L225.625,350 L226,350 L226.375,350 L227,350.5156 L227,351 L227,353 L227,353.4844 L226.375,354 L226.375,354 L226,354 L225.625,354 L225,353.4844 L225,353.4844 L225,353 L224,353 Z " fill="#000000"/><text fill="#000000" font-family="sans-serif" font-size="14" lengthAdjust="spacing" textLength="65" x="239.5" y="356.8535">RoleEnum</text><line style="stroke:#181818;stroke-width:0.5;" x1="211.5" x2="306.5" y1="368" y2="368"/><rect fill="none" height="6" style="stroke:#C82930;stroke-width:1.0;" width="6" x="218.5" y="378.3203"/><text fill="#000000" font-family="sans-serif" font-size="14" lengthAdjust="spacing" textLength="39" x="230.5" y="384.6738">Admin</text><rect fill="none" height="6" style="stroke:#C82930;stroke-width:1.0;" width="6" x="218.5" y="393.9609"/><text fill="#000000" font-family="sans-serif" font-size="14" lengthAdjust="spacing" textLength="29" x="230.5" y="400.3145">User</text><line style="stroke:#181818;stroke-width:0.5;" x1="211.5" x2="306.5" y1="407.2813" y2="407.2813"/></g><!--class Building--><g id="elem_Building"><rect codeLine="24" fill="#F1F1F1" height="204.4063" id="Building" rx="2.5" ry="2.5" style="stroke:#181818;stroke-width:0.5;" width="133" x="22.5" y="48"/><ellipse cx="60.45" cy="64" fill="#ADD1B2" rx="11" ry="11" style="stroke:#181818;stroke-width:1.0;"/><path d="M62.45,60.5 Q62.6531,60 62.8875,59.75 Q63.1219,59.5 63.3875,59.5 Q63.8563,59.5 64.1531,59.7813 Q64.45,60.0625 64.45,60.7188 L64.45,62.2813 Q64.45,62.9375 64.1688,63.2188 Q63.8875,63.5 63.45,63.5 Q63.0594,63.5 62.8094,63.3281 Q62.5594,63.1563 62.45,62.7031 Q62.4031,62.3906 62.2313,62.2188 Q61.9188,61.8906 61.3563,61.7031 Q60.7938,61.5 60.2313,61.5 Q59.5281,61.5 58.9344,61.7813 Q58.3563,62.0625 57.9031,62.6875 Q57.45,63.3125 57.45,64.1719 L57.45,65.0938 Q57.45,66.125 58.2938,66.8125 Q59.1375,67.5 60.6375,67.5 Q61.5281,67.5 62.1531,67.2969 Q62.5125,67.1875 62.9188,66.8281 Q63.1844,66.625 63.325,66.5625 Q63.4656,66.5 63.6375,66.5 Q63.9656,66.5 64.2,66.7656 Q64.45,67.0156 64.45,67.375 Q64.45,67.7188 64.1063,68.125 Q63.6063,68.7188 62.8094,69.0469 Q61.7625,69.5 60.4813,69.5 Q58.9813,69.5 57.7781,68.9063 Q56.8094,68.4375 56.1219,67.4219 Q55.45,66.4063 55.45,65.2031 L55.45,64.1094 Q55.45,62.8594 56.0438,61.7656 Q56.6531,60.6719 57.7,60.0938 Q58.7625,59.5 59.95,59.5 Q60.6688,59.5 61.2938,59.75 Q61.9188,60 62.45,60.5 Z " fill="#000000"/><text fill="#000000" font-family="sans-serif" font-size="14" lengthAdjust="spacing" textLength="50" x="79.55" y="68.8535">Building</text><line style="stroke:#181818;stroke-width:0.5;" x1="23.5" x2="154.5" y1="80" y2="80"/><rect fill="none" height="6" style="stroke:#C82930;stroke-width:1.0;" width="6" x="30.5" y="90.3203"/><text fill="#000000" font-family="sans-serif" font-size="14" lengthAdjust="spacing" textLength="58" x="42.5" y="96.6738">id : string</text><rect fill="none" height="6" style="stroke:#C82930;stroke-width:1.0;" width="6" x="30.5" y="105.9609"/><text fill="#000000" font-family="sans-serif" font-size="14" lengthAdjust="spacing" textLength="82" x="42.5" y="112.3145">name : string</text><rect fill="none" height="6" style="stroke:#C82930;stroke-width:1.0;" width="6" x="30.5" y="121.6016"/><text fill="#000000" font-family="sans-serif" font-size="14" lengthAdjust="spacing" textLength="77" x="42.5" y="127.9551">desc : string</text><rect fill="none" height="6" style="stroke:#C82930;stroke-width:1.0;" width="6" x="30.5" y="137.2422"/><text fill="#000000" font-family="sans-serif" font-size="14" lengthAdjust="spacing" textLength="75" x="42.5" y="143.5957">lat : decimal</text><rect fill="none" height="6" style="stroke:#C82930;stroke-width:1.0;" width="6" x="30.5" y="152.8828"/><text fill="#000000" font-family="sans-serif" font-size="14" lengthAdjust="spacing" textLength="79" x="42.5" y="159.2363">lng : decimal</text><line style="stroke:#181818;stroke-width:0.5;" x1="23.5" x2="154.5" y1="166.2031" y2="166.2031"/><ellipse cx="33.5" cy="179.5234" fill="#84BE84" rx="3" ry="3" style="stroke:#038048;stroke-width:1.0;"/><text fill="#000000" font-family="sans-serif" font-size="14" lengthAdjust="spacing" textLength="107" x="42.5" y="182.877">getOne() : object</text><ellipse cx="33.5" cy="195.1641" fill="#84BE84" rx="3" ry="3" style="stroke:#038048;stroke-width:1.0;"/><text fill="#000000" font-family="sans-serif" font-size="14" lengthAdjust="spacing" textLength="95" x="42.5" y="198.5176">getAll() : object</text><ellipse cx="33.5" cy="210.8047" fill="#84BE84" rx="3" ry="3" style="stroke:#038048;stroke-width:1.0;"/><text fill="#000000" font-family="sans-serif" font-size="14" lengthAdjust="spacing" textLength="100" x="42.5" y="214.1582">create() : object</text><ellipse cx="33.5" cy="226.4453" fill="#84BE84" rx="3" ry="3" style="stroke:#038048;stroke-width:1.0;"/><text fill="#000000" font-family="sans-serif" font-size="14" lengthAdjust="spacing" textLength="92" x="42.5" y="229.7988">update() : void</text><ellipse cx="33.5" cy="242.0859" fill="#84BE84" rx="3" ry="3" style="stroke:#038048;stroke-width:1.0;"/><text fill="#000000" font-family="sans-serif" font-size="14" lengthAdjust="spacing" textLength="87" x="42.5" y="245.4395">delete() : void</text></g><!--link UserAccount to RoleEnum--><g id="link_UserAccount_RoleEnum"><path codeLine="41" d="M259,260.13 C259,287.28 259,314.63 259,335.78 " fill="none" id="UserAccount-RoleEnum" style="stroke:#181818;stroke-width:1.0;"/><text fill="#000000" font-family="sans-serif" font-size="13" lengthAdjust="spacing" textLength="21" x="260" y="302.7686">has</text></g><!--SRC=[bPB9JiCm48RlVefHJaKeBz1RMAv5QjK76Ep16Bn4NeeGujqPbowXE4XOaHnz_tWo-UGHvIjgWkxMOafmPr17T03X2JQhzHPMk3CQimaUDkyfa-lWGmYvBzucYeEKeVZC47ZrO1Gi8ULel3uGZuukMIgnXGitRF6Hl_OMug_MCTXQk-RjtXSdzhYkQz2K7pmjhZWEZoyayyziiBQToKYOPywLKHspNJ1gaYYoD4q-XQW3dIOxwHcKC_xmNlNLoc-PDyLOnR_sJvEAahna5ZCZHT8uj4V6dSzC_2LfJj2SdBQOfXH-nFJMzFrPqHAwPqoT45y0]--></g></svg>