<?xml version="1.0" encoding="UTF-8" standalone="no"?><svg xmlns="http://www.w3.org/2000/svg" xmlns:xlink="http://www.w3.org/1999/xlink" contentStyleType="text/css" height="314px" preserveAspectRatio="none" style="width:498px;height:314px;background:#FFFFFF;" version="1.1" viewBox="0 0 498 314" width="498px" zoomAndPan="magnify"><defs/><g><!--cluster Class Diagram--><g id="cluster_Class Diagram"><path d="M8.5,6 L108.5,6 A3.75,3.75 0 0 1 111,8.5 L118,27.6406 L488.5,27.6406 A2.5,2.5 0 0 1 491,30.1406 L491,304.5 A2.5,2.5 0 0 1 488.5,307 L8.5,307 A2.5,2.5 0 0 1 6,304.5 L6,8.5 A2.5,2.5 0 0 1 8.5,6 " fill="none" style="stroke:#000000;stroke-width:1.5;"/><line style="stroke:#000000;stroke-width:1.5;" x1="6" x2="118" y1="27.6406" y2="27.6406"/><text fill="#000000" font-family="sans-serif" font-size="14" font-weight="bold" lengthAdjust="spacing" textLength="99" x="10" y="20.6738">Class Diagram</text></g><!--class UserAccount--><g id="elem_UserAccount"><rect codeLine="4" fill="#F1F1F1" height="235.6875" id="UserAccount" rx="2.5" ry="2.5" style="stroke:#181818;stroke-width:0.5;" width="178" x="22" y="47.5"/><ellipse cx="66.75" cy="63.5" fill="#ADD1B2" rx="11" ry="11" style="stroke:#181818;stroke-width:1.0;"/><path d="M68.75,60 Q68.9531,59.5 69.1875,59.25 Q69.4219,59 69.6875,59 Q70.1563,59 70.4531,59.2813 Q70.75,59.5625 70.75,60.2188 L70.75,61.7813 Q70.75,62.4375 70.4688,62.7188 Q70.1875,63 69.75,63 Q69.3594,63 69.1094,62.8281 Q68.8594,62.6563 68.75,62.2031 Q68.7031,61.8906 68.5313,61.7188 Q68.2188,61.3906 67.6563,61.2031 Q67.0938,61 66.5313,61 Q65.8281,61 65.2344,61.2813 Q64.6563,61.5625 64.2031,62.1875 Q63.75,62.8125 63.75,63.6719 L63.75,64.5938 Q63.75,65.625 64.5938,66.3125 Q65.4375,67 66.9375,67 Q67.8281,67 68.4531,66.7969 Q68.8125,66.6875 69.2188,66.3281 Q69.4844,66.125 69.625,66.0625 Q69.7656,66 69.9375,66 Q70.2656,66 70.5,66.2656 Q70.75,66.5156 70.75,66.875 Q70.75,67.2188 70.4063,67.625 Q69.9063,68.2188 69.1094,68.5469 Q68.0625,69 66.7813,69 Q65.2813,69 64.0781,68.4063 Q63.1094,67.9375 62.4219,66.9219 Q61.75,65.9063 61.75,64.7031 L61.75,63.6094 Q61.75,62.3594 62.3438,61.2656 Q62.9531,60.1719 64,59.5938 Q65.0625,59 66.25,59 Q66.9688,59 67.5938,59.25 Q68.2188,59.5 68.75,60 Z " fill="#000000"/><text fill="#000000" font-family="sans-serif" font-size="14" lengthAdjust="spacing" textLength="80" x="87.25" y="68.3535">UserAccount</text><line style="stroke:#181818;stroke-width:0.5;" x1="23" x2="199" y1="79.5" y2="79.5"/><rect fill="none" height="6" style="stroke:#C82930;stroke-width:1.0;" width="6" x="30" y="89.8203"/><text fill="#000000" font-family="sans-serif" font-size="14" lengthAdjust="spacing" textLength="58" x="42" y="96.1738">id : string</text><rect fill="none" height="6" style="stroke:#C82930;stroke-width:1.0;" width="6" x="30" y="105.4609"/><text fill="#000000" font-family="sans-serif" font-size="14" lengthAdjust="spacing" textLength="82" x="42" y="111.8145">name : string</text><rect fill="none" height="6" style="stroke:#C82930;stroke-width:1.0;" width="6" x="30" y="121.1016"/><text fill="#000000" font-family="sans-serif" font-size="14" lengthAdjust="spacing" textLength="102" x="42" y="127.4551">surname : string</text><rect fill="none" height="6" style="stroke:#C82930;stroke-width:1.0;" width="6" x="30" y="136.7422"/><text fill="#000000" font-family="sans-serif" font-size="14" lengthAdjust="spacing" textLength="110" x="42" y="143.0957">username : string</text><rect fill="none" height="6" style="stroke:#C82930;stroke-width:1.0;" width="6" x="30" y="152.3828"/><text fill="#000000" font-family="sans-serif" font-size="14" lengthAdjust="spacing" textLength="107" x="42" y="158.7363">password : string</text><line style="stroke:#181818;stroke-width:0.5;" x1="23" x2="199" y1="165.7031" y2="165.7031"/><ellipse cx="33" cy="179.0234" fill="#84BE84" rx="3" ry="3" style="stroke:#038048;stroke-width:1.0;"/><text fill="#000000" font-family="sans-serif" font-size="14" lengthAdjust="spacing" textLength="152" x="42" y="182.377">login(credential) : object</text><ellipse cx="33" cy="194.6641" fill="#84BE84" rx="3" ry="3" style="stroke:#038048;stroke-width:1.0;"/><text fill="#000000" font-family="sans-serif" font-size="14" lengthAdjust="spacing" textLength="108" x="42" y="198.0176">session() : object</text><ellipse cx="33" cy="210.3047" fill="#84BE84" rx="3" ry="3" style="stroke:#038048;stroke-width:1.0;"/><text fill="#000000" font-family="sans-serif" font-size="14" lengthAdjust="spacing" textLength="107" x="42" y="213.6582">getOne() : object</text><ellipse cx="33" cy="225.9453" fill="#84BE84" rx="3" ry="3" style="stroke:#038048;stroke-width:1.0;"/><text fill="#000000" font-family="sans-serif" font-size="14" lengthAdjust="spacing" textLength="95" x="42" y="229.2988">getAll() : object</text><ellipse cx="33" cy="241.5859" fill="#84BE84" rx="3" ry="3" style="stroke:#038048;stroke-width:1.0;"/><text fill="#000000" font-family="sans-serif" font-size="14" lengthAdjust="spacing" textLength="100" x="42" y="244.9395">create() : object</text><ellipse cx="33" cy="257.2266" fill="#84BE84" rx="3" ry="3" style="stroke:#038048;stroke-width:1.0;"/><text fill="#000000" font-family="sans-serif" font-size="14" lengthAdjust="spacing" textLength="92" x="42" y="260.5801">update() : void</text><ellipse cx="33" cy="272.8672" fill="#84BE84" rx="3" ry="3" style="stroke:#038048;stroke-width:1.0;"/><text fill="#000000" font-family="sans-serif" font-size="14" lengthAdjust="spacing" textLength="87" x="42" y="276.2207">delete() : void</text></g><!--class Building--><g id="elem_Building"><rect codeLine="20" fill="#F1F1F1" height="251.3281" id="Building" rx="2.5" ry="2.5" style="stroke:#181818;stroke-width:0.5;" width="240" x="235" y="40"/><ellipse cx="325.75" cy="56" fill="#ADD1B2" rx="11" ry="11" style="stroke:#181818;stroke-width:1.0;"/><path d="M327.75,52.5 Q327.9531,52 328.1875,51.75 Q328.4219,51.5 328.6875,51.5 Q329.1563,51.5 329.4531,51.7813 Q329.75,52.0625 329.75,52.7188 L329.75,54.2813 Q329.75,54.9375 329.4688,55.2188 Q329.1875,55.5 328.75,55.5 Q328.3594,55.5 328.1094,55.3281 Q327.8594,55.1563 327.75,54.7031 Q327.7031,54.3906 327.5313,54.2188 Q327.2188,53.8906 326.6563,53.7031 Q326.0938,53.5 325.5313,53.5 Q324.8281,53.5 324.2344,53.7813 Q323.6563,54.0625 323.2031,54.6875 Q322.75,55.3125 322.75,56.1719 L322.75,57.0938 Q322.75,58.125 323.5938,58.8125 Q324.4375,59.5 325.9375,59.5 Q326.8281,59.5 327.4531,59.2969 Q327.8125,59.1875 328.2188,58.8281 Q328.4844,58.625 328.625,58.5625 Q328.7656,58.5 328.9375,58.5 Q329.2656,58.5 329.5,58.7656 Q329.75,59.0156 329.75,59.375 Q329.75,59.7188 329.4063,60.125 Q328.9063,60.7188 328.1094,61.0469 Q327.0625,61.5 325.7813,61.5 Q324.2813,61.5 323.0781,60.9063 Q322.1094,60.4375 321.4219,59.4219 Q320.75,58.4063 320.75,57.2031 L320.75,56.1094 Q320.75,54.8594 321.3438,53.7656 Q321.9531,52.6719 323,52.0938 Q324.0625,51.5 325.25,51.5 Q325.9688,51.5 326.5938,51.75 Q327.2188,52 327.75,52.5 Z " fill="#000000"/><text fill="#000000" font-family="sans-serif" font-size="14" lengthAdjust="spacing" textLength="50" x="346.25" y="60.8535">Building</text><line style="stroke:#181818;stroke-width:0.5;" x1="236" x2="474" y1="72" y2="72"/><rect fill="none" height="6" style="stroke:#C82930;stroke-width:1.0;" width="6" x="243" y="82.3203"/><text fill="#000000" font-family="sans-serif" font-size="14" lengthAdjust="spacing" textLength="58" x="255" y="88.6738">id : string</text><rect fill="none" height="6" style="stroke:#C82930;stroke-width:1.0;" width="6" x="243" y="97.9609"/><text fill="#000000" font-family="sans-serif" font-size="14" lengthAdjust="spacing" textLength="82" x="255" y="104.3145">name : string</text><rect fill="none" height="6" style="stroke:#C82930;stroke-width:1.0;" width="6" x="243" y="113.6016"/><text fill="#000000" font-family="sans-serif" font-size="14" lengthAdjust="spacing" textLength="77" x="255" y="119.9551">desc : string</text><rect fill="none" height="6" style="stroke:#C82930;stroke-width:1.0;" width="6" x="243" y="129.2422"/><text fill="#000000" font-family="sans-serif" font-size="14" lengthAdjust="spacing" textLength="75" x="255" y="135.5957">lat : decimal</text><rect fill="none" height="6" style="stroke:#C82930;stroke-width:1.0;" width="6" x="243" y="144.8828"/><text fill="#000000" font-family="sans-serif" font-size="14" lengthAdjust="spacing" textLength="79" x="255" y="151.2363">lng : decimal</text><line style="stroke:#181818;stroke-width:0.5;" x1="236" x2="474" y1="158.2031" y2="158.2031"/><ellipse cx="246" cy="171.5234" fill="#84BE84" rx="3" ry="3" style="stroke:#038048;stroke-width:1.0;"/><text fill="#000000" font-family="sans-serif" font-size="14" lengthAdjust="spacing" textLength="107" x="255" y="174.877">getOne() : object</text><ellipse cx="246" cy="187.1641" fill="#84BE84" rx="3" ry="3" style="stroke:#038048;stroke-width:1.0;"/><text fill="#000000" font-family="sans-serif" font-size="14" lengthAdjust="spacing" textLength="95" x="255" y="190.5176">getAll() : object</text><ellipse cx="246" cy="202.8047" fill="#84BE84" rx="3" ry="3" style="stroke:#038048;stroke-width:1.0;"/><text fill="#000000" font-family="sans-serif" font-size="14" lengthAdjust="spacing" textLength="100" x="255" y="206.1582">create() : object</text><ellipse cx="246" cy="218.4453" fill="#84BE84" rx="3" ry="3" style="stroke:#038048;stroke-width:1.0;"/><text fill="#000000" font-family="sans-serif" font-size="14" lengthAdjust="spacing" textLength="92" x="255" y="221.7988">update() : void</text><ellipse cx="246" cy="234.0859" fill="#84BE84" rx="3" ry="3" style="stroke:#038048;stroke-width:1.0;"/><text fill="#000000" font-family="sans-serif" font-size="14" lengthAdjust="spacing" textLength="87" x="255" y="237.4395">delete() : void</text><ellipse cx="246" cy="249.7266" fill="#84BE84" rx="3" ry="3" style="stroke:#038048;stroke-width:1.0;"/><text fill="#000000" font-family="sans-serif" font-size="14" lengthAdjust="spacing" textLength="171" x="255" y="253.0801">findNearest(latLng) : object</text><ellipse cx="246" cy="265.3672" fill="#84BE84" rx="3" ry="3" style="stroke:#038048;stroke-width:1.0;"/><text fill="#000000" font-family="sans-serif" font-size="14" lengthAdjust="spacing" textLength="214" x="255" y="268.7207">navigate({bid_start, goal}) : object</text><ellipse cx="246" cy="281.0078" fill="#84BE84" rx="3" ry="3" style="stroke:#038048;stroke-width:1.0;"/><text fill="#000000" font-family="sans-serif" font-size="14" lengthAdjust="spacing" textLength="143" x="255" y="284.3613">uploadImage(file): void</text></g><!--link UserAccount to Building--><g id="link_UserAccount_Building"><path codeLine="40" d="M200.12,165.5 C211.71,165.5 223.31,165.5 234.91,165.5 " fill="none" id="UserAccount-Building" style="stroke:#181818;stroke-width:1.0;"/><text fill="#000000" font-family="sans-serif" font-size="13" lengthAdjust="spacing" textLength="7" x="208.0795" y="162.7029">1</text><text fill="#000000" font-family="sans-serif" font-size="13" lengthAdjust="spacing" textLength="5" x="222.0566" y="162.8264">*</text></g><!--SRC=[bP8_JyCm4CLtVmhBKmfaO6Khi20Xc9ZHrRwQenSxyfyoLFtkE41eb3f8UFozypk_9_UWTs1HgZk66EKzWGtGANaGGd-HbuXXhRNFBXKeosab6NaZOmhax0znqE6SnHngE1V36k_BjWyVPjR3kPJiBRb61pJe4W6lof3VlADEaw68CP9tJLMqc9uTBcfhvhfMTa9Qk9TxCsfxJsQY66ISAaSnrdcRYKq9zyyk3KOzPmof88EQEk2H5USJ4tzbNygzbBcUzpphDzsICqy80MDgoaCVdJspSx0dEnWUDcHUOuAGhgJrmCVAPlPW7hhoKvijCQvElGxLJl-ekbQo3MJVKYlLXVejN8XF]--></g></svg>